P2
7 7
720
10 20 30 40 50 60 70
90 100 110 120 130 140 150 
170 180 190 200 210 220 230  
250 260 270 280 290 300 310  
330 340 350 360 370 380 390  
410 420 430 440 450 460 470  
490 500 510 520 530 540 550 


