P2
101 100
255
212 212 210 207 205 202 205 206 204 201 201 204 208 207 207 208 209 211 212 213 213 208 208 208 208 208 209 211 212 205 206 207 209 210 210 210 209 215 214 213 213 213 214 216 217 217 217 216 216 217 217 218 219 219 218 216 215 215 216 218 219 217 219 221 222 223 222 220 219 222 217 213 213 212 210 212 217 217 217 217 217 218 220 221 222 221 220 219 218 217 217 217 217 216 216 216 216 216 216 216 216 
208 208 207 205 204 197 199 202 201 199 199 202 206 202 204 207 210 211 210 207 206 202 202 202 204 206 208 209 210 210 211 212 214 215 216 216 216 213 214 216 217 217 217 216 215 216 216 216 216 216 217 218 219 219 218 216 215 215 216 218 219 218 218 220 221 222 221 220 220 223 217 214 214 213 211 213 217 215 215 215 216 218 219 221 222 221 220 219 217 216 216 216 216 216 216 216 216 216 216 216 216 
209 210 210 210 210 207 208 209 208 207 206 207 208 203 206 211 214 215 212 208 205 208 207 207 208 210 211 210 209 206 207 207 208 209 210 211 212 213 214 217 219 219 218 216 215 215 215 215 215 216 217 218 219 219 218 216 215 215 216 218 219 218 218 218 218 219 219 220 220 221 216 214 215 214 212 214 218 212 212 213 214 215 217 219 220 221 220 219 217 216 215 215 215 217 217 217 217 217 217 217 217 
207 208 209 210 211 211 210 209 209 210 210 209 207 204 206 210 213 214 212 210 209 213 211 210 211 213 213 211 209 210 210 210 210 211 212 213 213 214 214 215 216 216 216 216 216 215 215 215 215 216 217 218 219 219 218 216 215 215 216 218 219 219 218 216 215 216 217 219 221 219 215 214 217 216 214 214 218 213 213 214 215 217 219 221 222 221 220 219 217 216 215 215 215 215 215 215 215 215 215 215 215 
208 208 209 211 212 207 205 203 205 209 210 208 205 204 206 208 210 212 212 213 213 213 211 210 212 215 216 214 211 210 210 209 209 209 210 211 212 215 214 213 212 212 214 216 217 214 214 214 215 216 217 218 219 219 218 216 215 215 216 218 219 219 217 215 213 214 216 219 221 217 214 214 218 218 215 215 218 216 217 217 218 220 222 224 226 221 220 219 217 215 215 214 214 214 214 214 214 214 214 214 214 
223 222 222 224 226 216 225 223 217 219 217 219 231 225 222 214 218 230 228 222 227 235 217 223 222 219 226 224 224 234 217 196 211 218 204 210 211 211 211 212 213 213 214 215 215 216 216 215 215 215 216 217 218 217 216 215 214 215 216 218 219 216 216 216 216 216 216 216 217 214 216 217 217 216 217 219 222 220 220 219 219 220 222 224 225 222 222 221 218 215 214 215 217 215 215 214 213 213 213 214 214 
232 230 228 227 227 221 225 219 216 223 221 217 221 222 227 222 218 222 219 214 219 212 208 216 220 209 214 222 205 186 217 215 214 216 210 216 214 211 211 212 213 214 214 215 215 217 216 215 214 214 214 214 214 217 216 215 214 215 216 218 219 215 215 215 215 216 216 216 216 214 215 216 216 215 216 218 221 219 219 219 220 221 222 223 224 220 220 219 216 214 213 214 216 215 215 214 214 214 214 215 215 
94 94 92 91 90 91 91 82 82 93 91 80 78 68 84 83 71 70 69 66 70 66 71 66 70 54 69 111 86 120 206 226 208 208 210 215 211 211 212 212 213 214 215 215 215 218 217 216 214 213 212 212 212 217 216 215 214 215 216 218 219 215 215 215 215 214 214 214 214 213 214 215 215 214 214 217 219 218 218 219 221 221 222 221 221 219 219 218 215 212 212 213 215 216 215 215 214 214 215 216 216 
25 27 30 33 35 34 34 26 27 38 35 23 20 33 53 54 42 45 50 49 49 51 61 46 51 31 47 107 78 89 199 225 203 207 210 211 210 212 212 213 213 214 215 216 216 218 217 216 215 214 213 214 214 217 216 215 214 215 216 218 219 215 214 214 214 214 213 213 213 212 214 214 214 213 213 215 217 216 218 219 221 221 221 220 219 218 219 218 215 213 212 214 216 215 215 215 214 215 215 216 217 
55 59 65 72 78 67 71 66 66 73 69 61 62 57 73 71 63 73 84 81 77 73 87 76 87 69 66 108 78 111 207 227 209 215 213 210 211 212 212 213 214 215 215 216 216 218 217 216 216 216 217 217 218 217 216 215 214 215 216 218 219 215 215 215 214 214 213 213 213 213 214 214 213 212 212 214 216 216 217 219 220 220 220 219 218 219 219 218 216 214 213 215 218 214 214 214 214 214 215 216 217 
47 49 54 62 68 60 66 62 58 62 58 54 61 58 65 57 53 68 77 71 67 71 74 64 83 81 68 89 82 137 211 226 216 217 210 208 207 213 213 213 214 215 216 216 217 218 217 217 217 217 218 219 220 217 216 215 214 215 216 218 219 216 216 216 215 214 213 213 213 213 214 215 214 212 212 214 216 217 217 218 218 219 218 218 217 218 219 218 216 214 214 216 218 213 213 212 213 213 215 216 217 
48 47 50 55 60 63 66 57 51 54 52 50 57 62 61 51 50 63 66 61 62 75 64 58 85 106 89 86 111 134 200 224 218 209 205 213 207 213 213 214 214 215 216 217 217 219 218 217 216 216 216 217 217 217 216 215 214 215 216 218 219 218 217 217 216 215 214 214 213 214 215 216 215 213 213 215 216 218 218 217 217 217 217 217 218 217 217 217 215 213 213 215 217 211 211 211 211 212 214 215 216 
52 51 52 55 58 65 64 51 44 48 47 44 50 62 58 48 49 59 58 55 63 66 52 60 99 132 102 68 103 119 189 225 221 205 207 224 214 213 213 214 215 215 216 217 217 220 219 217 216 215 214 214 214 217 216 215 214 215 216 218 219 219 218 218 217 216 215 214 214 215 216 216 215 213 213 215 217 219 218 216 215 215 216 217 218 215 215 215 213 211 212 214 216 210 210 210 211 211 213 214 215 
56 53 50 52 59 57 53 48 44 44 47 53 56 54 54 62 63 66 67 56 55 69 82 78 136 123 83 71 67 143 200 216 209 212 210 210 210 213 213 215 216 216 216 216 216 217 217 217 215 214 214 216 218 213 215 217 217 216 215 216 217 218 218 218 217 217 216 216 216 212 215 217 217 215 214 217 220 219 219 217 216 215 214 214 214 216 215 214 212 212 213 214 215 210 210 210 211 211 211 212 212 
49 46 50 52 50 50 48 45 44 46 51 57 60 45 51 56 58 69 70 60 65 70 81 92 110 83 65 45 56 179 217 224 214 215 210 207 209 213 214 215 215 216 216 216 215 216 217 217 215 214 214 216 218 215 217 219 219 218 217 218 219 218 218 218 217 217 217 216 216 214 216 218 217 215 214 216 219 218 218 216 215 215 215 215 215 215 215 214 213 213 213 213 214 210 210 210 211 211 212 212 213 
44 40 50 52 43 51 50 49 49 51 54 57 59 61 70 58 55 70 69 66 78 49 95 141 86 47 94 59 59 204 216 217 211 215 213 208 215 213 214 214 215 216 215 215 215 215 216 216 215 214 214 216 218 217 219 221 220 219 219 220 222 218 218 218 218 217 217 217 216 216 217 218 217 216 215 216 217 217 216 215 215 215 215 216 216 214 214 215 215 214 213 212 212 209 209 210 211 212 213 214 214 
55 50 54 55 51 55 55 53 52 51 51 51 51 45 68 61 64 73 54 39 41 40 58 129 97 109 193 114 99 217 207 209 209 215 217 209 218 213 214 214 215 215 215 214 214 214 215 216 216 214 214 216 217 218 219 220 220 219 219 221 223 219 219 218 218 218 217 217 217 218 218 218 217 216 215 215 216 215 215 215 214 215 215 216 217 213 214 215 215 215 213 211 210 209 209 210 211 212 213 214 215 
46 42 34 35 44 47 48 49 50 50 50 49 49 41 58 39 40 48 45 65 78 98 33 73 57 52 108 82 179 228 203 211 214 217 220 206 215 213 214 214 215 215 214 213 213 212 214 216 216 215 214 216 217 217 218 219 218 217 217 220 222 219 219 219 218 218 218 217 217 219 218 218 217 217 217 216 215 215 215 214 214 214 215 216 216 213 214 215 215 214 212 210 209 210 210 211 212 213 214 214 215 
25 22 9 11 25 4 6 10 14 18 21 23 24 16 26 9 19 27 50 116 139 127 85 138 139 99 96 70 176 217 188 208 212 214 223 208 216 213 214 214 214 214 213 212 212 210 213 215 216 215 214 215 217 217 217 217 216 215 216 219 221 220 219 219 219 218 218 218 218 219 218 217 217 218 219 217 216 216 215 214 214 214 214 214 215 215 215 214 214 213 211 210 209 212 212 212 212 213 213 213 213 
84 82 76 79 88 90 91 94 97 101 104 106 107 86 105 114 139 125 129 188 186 154 126 144 156 152 171 139 174 206 178 209 210 207 224 210 217 214 214 214 214 214 213 212 211 209 212 215 216 215 215 215 216 217 218 217 216 215 216 219 222 220 220 219 219 219 218 218 218 219 217 215 217 219 220 219 217 217 216 215 214 213 213 213 213 216 215 214 212 211 210 210 210 214 214 213 213 213 212 212 212 
198 197 200 204 204 201 201 200 200 199 199 199 199 210 210 199 199 149 139 202 192 170 165 179 196 172 169 168 214 217 190 222 216 206 223 208 213 214 214 214 214 214 212 211 211 209 211 215 216 215 215 215 216 218 218 218 216 215 216 219 223 220 220 220 219 219 218 218 218 218 216 215 216 220 221 220 218 217 217 215 214 213 212 212 212 217 216 213 211 210 209 210 210 215 215 214 213 213 212 211 211 
188 187 186 187 188 192 193 192 190 187 186 187 188 189 197 198 200 142 161 192 177 195 99 164 207 196 164 160 196 237 214 217 214 210 216 213 218 217 216 216 215 213 211 209 208 216 216 215 215 215 214 214 214 212 216 218 217 217 220 220 216 219 219 219 219 219 219 219 219 224 221 219 218 219 220 220 220 221 223 224 222 218 215 215 216 218 218 218 218 217 216 215 215 217 216 214 213 211 210 210 210 
187 186 187 189 190 195 196 195 193 190 189 190 191 191 187 194 207 172 176 199 177 179 127 178 144 137 174 166 163 214 198 212 215 213 219 213 215 216 216 215 214 212 211 211 210 217 217 216 215 215 214 214 214 212 217 218 217 218 221 220 217 217 217 217 217 217 217 217 217 222 220 218 217 218 218 219 219 219 221 222 221 217 215 215 216 217 218 219 220 219 218 217 216 218 218 217 215 214 213 213 213 
189 190 191 193 194 199 199 199 197 194 192 193 195 207 190 197 198 162 133 155 142 123 132 220 142 114 165 148 155 206 195 213 217 213 219 213 214 216 215 213 212 212 212 213 214 219 218 217 215 214 214 214 214 214 217 219 217 218 221 221 218 218 218 218 218 218 218 218 218 220 219 218 217 217 217 217 218 217 218 219 218 216 215 216 217 215 217 219 221 221 220 218 217 219 219 219 218 217 217 217 216 
194 195 196 197 198 200 201 200 198 195 194 195 196 202 190 205 196 159 118 166 186 179 146 214 138 122 165 141 183 213 204 221 218 210 216 213 217 215 214 212 211 211 213 216 217 220 219 217 215 214 214 214 214 214 218 219 217 218 221 221 219 220 220 220 220 220 220 220 220 219 220 220 219 217 217 217 218 215 216 216 216 216 216 217 218 213 215 217 220 220 219 217 216 218 218 219 219 219 218 218 217 
197 196 196 197 197 200 200 200 198 195 194 194 196 195 190 206 198 169 135 192 225 205 119 150 97 136 205 161 173 200 200 223 221 210 216 213 216 215 213 212 211 212 214 217 219 221 219 217 215 214 214 215 216 215 218 218 216 217 220 221 219 220 220 220 220 220 220 220 220 219 221 222 221 219 217 218 220 215 214 213 214 215 217 218 219 211 213 215 217 217 217 215 214 216 216 217 218 217 217 216 215 
196 195 194 194 193 199 199 199 196 194 192 193 195 199 198 199 197 179 157 186 199 167 130 180 111 124 199 174 163 171 182 218 223 214 218 213 213 214 213 213 213 214 215 217 218 220 218 216 214 214 215 217 218 214 217 217 214 215 219 221 218 217 217 217 217 217 217 217 217 218 221 224 223 219 217 218 221 216 214 213 213 215 218 219 219 212 213 213 214 214 214 214 214 214 215 216 216 216 214 212 211 
197 196 195 194 193 198 199 198 196 193 192 193 194 190 203 195 202 191 190 196 190 173 167 237 165 120 159 171 178 162 178 219 224 214 218 213 213 213 213 214 214 215 216 216 217 219 217 215 214 214 216 219 221 213 216 215 212 213 218 219 218 216 216 216 216 216 216 216 216 216 220 224 223 218 216 217 220 219 216 213 213 216 219 219 219 216 215 214 213 213 213 214 215 214 214 215 216 215 212 210 208 
199 199 198 197 197 199 199 199 196 194 192 193 195 185 210 195 198 176 183 179 168 117 89 183 194 172 170 161 157 176 190 226 225 211 216 213 215 213 214 215 216 216 216 216 215 218 217 215 213 214 217 220 222 213 215 214 211 212 217 219 217 217 217 217 217 217 217 217 217 214 219 223 222 217 214 216 219 220 217 213 213 216 219 220 219 219 217 215 213 212 213 215 216 214 215 216 216 214 212 209 207 
194 194 195 196 197 197 198 198 196 193 192 192 193 191 203 204 180 173 199 181 142 107 139 192 192 192 177 192 179 154 182 213 211 215 222 210 216 212 212 214 215 217 218 219 220 216 215 215 214 214 215 215 216 214 214 215 216 216 217 218 218 222 220 217 217 218 220 220 220 217 219 220 219 217 216 217 219 218 216 214 216 220 221 220 218 222 220 218 215 214 213 213 213 218 217 217 216 214 212 210 209 
194 195 195 196 197 197 198 198 197 194 192 192 193 196 191 196 195 192 206 168 162 199 188 217 200 181 173 197 202 193 201 222 216 210 216 210 216 214 214 214 214 215 215 216 216 216 216 215 215 215 215 216 216 215 215 216 217 218 218 219 219 221 219 217 216 218 219 219 219 216 218 219 219 217 217 218 220 219 217 216 217 219 221 219 217 222 222 221 220 218 216 214 212 215 215 215 215 214 214 213 212 
194 195 196 197 197 197 198 198 197 194 192 193 194 202 189 193 200 175 126 81 119 199 168 206 190 156 167 213 245 200 187 211 217 207 215 217 220 218 217 217 216 216 215 215 214 217 216 216 215 215 216 216 217 216 216 217 217 218 219 220 220 220 218 216 216 217 219 218 217 215 217 218 218 218 218 219 221 220 219 218 218 219 219 218 216 221 222 222 222 220 216 212 210 212 212 213 214 214 215 215 216 
195 195 196 197 198 197 198 199 197 195 193 193 195 192 189 191 203 179 74 98 182 203 163 203 193 154 173 197 206 185 162 196 219 211 219 221 218 220 220 219 219 219 218 218 218 217 217 216 216 216 216 217 217 215 215 216 216 217 218 219 219 218 217 215 216 217 218 217 216 214 216 218 218 218 218 220 222 222 221 220 219 219 218 217 216 220 220 219 218 216 213 211 210 213 213 213 213 214 215 216 216 
195 196 196 197 198 197 198 199 197 195 194 194 196 192 195 186 197 197 66 161 248 230 175 177 168 152 204 228 214 193 166 197 221 213 216 215 210 216 216 217 218 218 219 220 220 217 216 216 215 215 216 216 217 213 213 214 215 216 216 217 217 218 216 216 216 218 218 217 215 214 216 218 218 218 218 220 222 222 222 221 220 218 217 217 217 223 220 217 214 213 212 213 214 216 215 214 213 213 213 214 214 
196 196 197 198 198 197 198 199 198 196 194 195 197 199 200 187 191 197 65 139 172 211 191 186 188 158 180 184 148 203 179 198 210 206 210 208 210 209 210 211 213 215 216 217 218 216 215 215 214 214 215 215 216 212 212 213 214 215 215 216 216 218 217 217 218 219 219 217 215 215 217 218 218 218 218 219 221 221 222 222 221 218 217 217 218 224 222 218 214 213 215 218 220 218 217 215 213 212 212 213 213 
196 196 197 198 199 197 198 199 198 196 195 196 197 193 191 194 197 194 123 144 144 202 174 115 122 114 157 214 215 200 188 197 199 203 210 204 213 207 207 209 210 212 214 215 216 214 214 213 213 213 213 214 214 213 213 214 214 215 216 217 217 218 218 218 219 221 220 218 216 216 218 219 219 217 217 218 220 220 222 223 221 218 217 218 220 221 219 217 215 215 217 219 221 218 217 214 212 211 212 213 214 
196 196 197 198 199 197 198 199 198 196 195 196 198 198 189 199 191 176 182 185 197 208 165 80 128 162 197 231 206 200 199 206 202 210 213 200 211 208 209 210 211 212 214 215 215 214 213 212 212 212 212 213 214 214 214 215 216 216 217 218 218 219 218 218 220 222 221 219 216 217 219 220 219 217 216 217 219 219 221 223 222 218 217 219 221 215 215 215 215 216 217 217 218 217 216 213 212 211 213 214 216 
191 195 201 200 194 198 197 197 196 195 193 192 191 196 191 192 194 188 180 188 203 187 137 170 235 225 198 200 200 214 208 203 205 211 212 206 199 207 207 205 204 207 211 212 211 213 211 209 209 211 213 215 216 219 216 214 215 218 220 219 217 217 218 218 216 215 215 217 220 223 222 221 221 222 222 219 217 223 223 222 222 222 220 216 214 215 216 219 221 222 221 220 219 215 214 214 215 215 217 218 219 
200 197 197 199 201 198 198 198 197 196 194 192 191 191 193 203 203 177 154 176 218 183 128 154 220 218 191 188 186 212 212 212 214 215 212 207 202 206 204 202 202 204 207 207 206 211 209 208 209 211 214 216 217 218 215 213 214 216 218 217 215 218 218 218 217 215 215 217 219 220 219 218 220 221 222 220 218 221 221 221 222 222 221 219 217 216 217 219 221 222 222 221 220 218 218 218 218 218 217 217 217 
195 197 199 201 200 199 199 198 198 197 195 194 193 197 194 200 197 162 130 153 202 215 155 170 231 232 203 196 194 195 198 203 206 207 206 204 204 204 201 198 199 200 202 202 202 209 209 210 211 213 216 218 219 217 215 213 213 214 215 215 214 218 219 219 217 215 214 216 218 217 216 216 218 220 221 220 219 218 219 220 220 220 220 219 219 216 217 219 220 221 221 221 220 220 220 221 221 220 218 216 215 
166 186 201 201 193 199 199 199 198 197 196 195 194 201 191 188 190 179 165 177 203 215 160 167 219 221 196 192 196 205 203 201 199 199 199 200 199 200 196 194 197 199 200 200 202 204 205 207 209 209 210 212 214 216 215 214 213 214 214 214 214 218 219 219 218 216 214 215 217 218 217 217 218 220 221 219 218 217 218 219 218 217 216 216 217 216 216 216 217 218 219 220 220 219 220 221 222 221 219 217 215 
137 158 183 194 194 198 198 199 198 198 196 195 195 194 191 189 194 206 218 224 224 190 150 155 194 197 181 186 199 242 229 212 200 197 195 192 189 194 188 187 193 197 197 199 203 197 201 204 205 204 204 205 206 215 215 214 214 213 213 214 215 217 218 219 218 216 215 215 217 221 220 219 220 221 221 218 216 217 218 218 216 213 211 212 213 215 215 214 214 215 217 218 219 216 218 220 221 221 220 218 216 
126 130 153 182 201 197 197 198 198 197 196 195 194 189 196 195 188 189 200 201 193 190 167 169 189 188 178 183 195 237 221 200 188 185 185 181 176 183 177 176 185 189 188 191 197 196 201 207 209 207 206 207 209 211 212 213 212 211 211 213 216 215 217 219 219 217 216 216 217 222 221 220 220 221 220 218 215 216 218 218 215 210 208 210 212 216 215 213 213 214 216 219 220 217 218 219 220 221 220 219 218 
130 122 138 172 198 196 196 196 197 196 195 194 194 192 195 190 178 168 165 162 159 184 175 175 182 181 175 175 178 197 189 180 174 173 172 169 166 172 164 163 172 177 174 176 183 188 195 203 206 206 205 207 210 205 208 209 209 208 209 212 215 213 215 218 219 218 217 218 219 219 218 218 218 220 220 218 216 216 218 219 216 211 209 212 216 219 217 215 213 214 217 221 223 222 222 222 221 220 220 219 219 
134 128 141 167 188 195 195 196 196 196 195 194 193 193 185 181 183 182 177 176 180 173 174 177 181 187 189 186 182 180 180 180 178 173 168 163 160 164 155 154 163 166 162 164 172 172 180 190 195 195 195 198 202 201 204 206 206 205 206 210 214 211 214 217 219 218 218 219 220 215 215 215 217 219 220 218 217 215 218 219 217 212 211 216 221 221 219 216 215 216 219 223 225 227 226 224 222 220 219 219 219 
143 166 179 181 191 196 195 195 193 189 184 184 186 181 172 169 176 178 175 178 186 190 181 170 165 164 162 156 151 148 154 156 154 157 163 162 155 154 161 169 173 172 169 166 165 176 176 178 183 190 194 195 193 194 198 205 207 202 199 205 216 215 216 218 217 216 215 217 218 217 217 217 219 221 222 220 218 217 219 219 217 213 212 214 217 223 221 220 219 219 218 217 215 224 223 222 220 220 220 221 221 
136 171 194 192 191 189 186 183 183 183 183 183 182 163 164 170 177 177 169 161 157 143 145 148 152 154 154 151 149 143 147 149 149 153 157 154 146 156 160 164 165 164 164 165 166 158 163 172 184 192 194 190 185 194 197 203 205 200 194 199 207 209 212 214 215 215 215 217 218 214 214 215 218 221 222 220 217 213 215 216 216 215 215 218 221 222 221 219 218 218 218 217 216 215 216 217 218 218 218 217 217 
128 161 188 192 190 198 196 193 191 188 180 168 158 173 171 164 152 144 141 137 133 133 138 145 149 149 149 149 150 148 148 147 147 150 151 144 134 137 141 147 151 154 156 159 160 168 167 169 173 180 185 189 190 192 195 200 202 197 191 192 198 201 205 209 212 213 214 216 218 215 216 218 221 224 225 223 221 213 214 215 216 216 217 219 222 221 220 218 217 216 216 217 218 210 212 215 217 218 217 215 214 
140 147 162 171 175 169 164 154 146 145 152 158 160 141 141 130 114 109 118 124 123 132 132 132 131 131 133 135 137 152 147 141 140 142 141 134 127 117 123 133 143 150 154 156 157 181 178 175 175 177 181 185 188 190 192 197 201 199 193 192 196 195 199 204 209 211 213 215 217 217 217 219 222 224 224 222 220 217 217 217 216 216 216 217 218 219 219 218 216 215 216 218 220 215 216 217 217 217 217 217 216 
132 122 125 129 124 125 139 151 150 142 133 123 115 71 87 99 103 110 121 124 119 128 125 122 125 130 134 134 132 137 131 126 128 132 135 135 134 130 131 135 140 146 152 156 158 164 170 180 187 188 184 178 174 187 188 192 199 201 198 197 199 193 197 202 206 208 211 213 215 217 216 216 218 220 220 218 216 219 218 217 216 217 217 217 217 217 219 219 218 216 216 219 222 223 221 218 215 214 215 216 217 
124 122 130 126 106 123 150 174 175 157 132 104 82 85 98 111 118 121 124 123 121 127 126 126 132 137 136 128 119 121 118 119 127 135 142 149 154 156 149 140 136 138 145 153 158 154 161 170 178 181 181 180 180 184 182 186 195 201 201 200 202 197 199 202 204 206 208 211 214 221 219 217 218 220 221 221 221 218 216 215 216 218 220 220 219 215 218 221 221 218 217 220 223 224 221 217 213 211 212 214 216 
140 146 162 161 135 123 135 139 131 124 127 127 122 130 127 125 121 116 113 118 127 118 119 120 122 122 116 108 101 122 122 128 138 143 146 153 161 161 154 145 140 143 151 158 161 165 167 168 169 170 174 181 187 180 177 179 189 197 199 200 201 203 204 204 204 203 205 209 212 219 216 213 214 217 221 224 226 220 218 215 216 218 220 219 217 213 218 223 224 221 219 221 224 221 219 216 214 213 213 215 216 
141 136 151 156 134 110 124 134 132 132 133 126 113 117 110 107 109 106 103 114 129 121 122 123 121 118 116 116 118 127 130 138 145 144 139 142 149 153 151 151 155 162 168 171 171 173 177 182 183 179 176 174 174 178 173 174 184 193 196 197 199 208 207 206 203 202 204 208 211 208 205 202 203 208 214 219 222 226 222 218 217 218 217 215 212 212 218 225 226 223 220 222 224 218 218 217 217 217 217 217 217 
130 136 142 132 117 95 106 117 123 130 136 135 128 119 116 111 105 101 103 108 113 115 102 92 98 115 126 125 118 127 132 139 142 143 144 146 148 154 155 160 167 174 176 173 169 170 167 170 176 175 170 177 190 184 189 193 191 188 189 198 207 210 211 211 212 213 211 208 206 209 202 198 201 202 202 207 215 223 219 214 214 217 219 219 217 214 215 218 221 223 223 220 217 220 218 216 216 216 216 214 212 
134 137 137 126 113 103 110 116 118 124 132 135 133 124 123 120 117 116 118 124 128 119 114 111 116 127 135 137 135 139 147 154 151 146 149 162 176 162 162 164 168 170 170 166 162 156 160 167 173 175 175 181 189 185 190 196 197 197 198 204 209 217 215 216 219 222 217 207 198 202 202 203 203 197 192 197 206 211 211 212 214 216 217 218 219 216 217 219 221 222 222 220 218 220 218 216 216 217 217 215 213 
133 126 120 110 101 103 105 104 104 109 119 126 128 129 129 128 126 124 124 126 129 133 134 136 138 140 143 146 148 156 148 142 146 158 169 172 170 166 167 168 169 169 166 161 157 149 159 168 173 177 184 190 191 195 200 207 213 216 219 222 224 228 222 217 219 225 224 216 207 203 199 198 198 196 191 190 191 197 200 205 209 212 215 218 221 218 219 220 221 221 220 220 219 220 218 217 217 217 217 216 214 
111 102 97 93 89 99 98 96 96 100 109 118 123 135 137 138 137 134 132 132 132 141 142 144 145 146 148 152 155 156 145 139 148 166 174 167 156 159 162 167 170 170 165 159 155 151 163 172 173 179 191 197 195 195 198 205 212 219 224 227 229 233 223 211 206 210 217 222 224 213 200 189 190 196 198 190 182 189 190 193 199 206 214 219 221 219 220 221 220 219 218 219 220 220 218 217 217 218 218 216 215 
82 81 83 83 82 90 89 90 94 100 106 113 118 129 134 141 147 151 154 157 159 153 151 149 150 154 158 160 160 151 156 162 163 160 160 164 168 159 164 172 176 175 170 163 159 160 170 176 176 183 199 207 205 209 211 216 221 228 234 239 242 232 224 211 199 195 200 211 220 217 209 199 192 191 192 189 185 188 183 181 186 199 211 217 219 218 220 221 220 217 217 218 220 219 217 216 216 218 218 217 215 
74 77 77 74 72 69 70 76 85 93 97 102 107 106 115 129 143 156 166 174 179 190 184 178 175 176 174 169 164 169 168 167 164 164 166 170 174 176 181 187 190 187 181 176 173 176 180 184 187 195 206 214 216 216 219 222 224 226 229 234 237 228 226 219 207 197 193 196 201 206 216 219 205 187 180 184 190 186 181 177 180 191 203 212 215 214 217 220 220 217 215 217 219 217 216 215 215 217 217 216 214 
75 76 72 69 70 64 66 75 89 99 103 107 113 108 116 129 143 155 165 172 177 204 202 200 199 197 191 182 175 188 177 168 171 182 187 181 172 184 187 189 189 185 182 182 182 186 183 185 191 196 197 200 203 191 196 200 198 193 190 191 193 210 210 208 203 196 191 188 187 190 208 221 213 197 186 183 182 181 182 182 182 185 193 204 212 209 214 219 220 216 214 216 218 216 214 213 214 215 216 215 214 
69 68 66 70 78 82 84 94 111 122 126 132 139 138 144 152 159 163 167 170 172 180 186 194 202 204 201 196 192 184 187 192 196 196 193 189 186 175 175 175 172 170 171 175 179 183 176 177 184 184 176 172 176 182 189 194 190 179 170 168 169 185 183 181 182 184 185 183 181 181 194 207 213 213 205 187 169 175 183 189 187 182 185 198 211 206 212 218 220 217 214 215 217 215 213 212 213 215 215 214 213 
78 73 90 102 110 114 127 140 145 141 139 143 149 154 160 165 166 164 163 166 170 171 173 173 174 183 196 200 196 203 201 199 199 198 194 187 182 186 171 157 154 155 156 161 168 176 173 169 167 166 165 164 163 159 163 168 174 183 186 177 165 171 176 177 173 170 171 167 160 181 180 186 198 204 201 195 193 182 174 172 180 188 191 194 199 206 207 214 223 223 217 215 218 212 211 212 214 216 217 216 215 
72 78 103 118 126 139 138 136 133 132 138 149 157 160 172 186 191 186 178 173 172 165 173 177 175 177 185 191 192 207 212 216 214 208 202 199 199 187 175 163 160 157 153 152 154 164 162 159 159 162 167 171 173 161 160 157 157 165 176 180 178 176 176 173 169 170 174 171 164 166 163 167 180 197 208 211 210 188 179 175 180 188 191 193 197 209 209 213 219 219 214 214 218 212 211 211 213 215 216 215 213 
77 92 117 123 129 111 111 113 118 126 136 144 148 143 148 151 148 143 145 156 166 176 188 196 193 188 189 196 202 187 195 201 197 186 180 183 188 199 191 184 183 181 176 171 170 166 163 160 158 159 162 166 169 177 174 166 158 158 167 175 178 183 180 174 170 173 178 178 173 161 156 152 158 177 197 207 208 197 187 180 182 187 190 193 195 210 210 212 216 215 212 214 217 213 212 211 212 214 214 213 211 
96 107 119 110 110 106 106 106 106 106 105 104 103 112 112 109 102 101 114 140 161 172 183 192 191 184 182 187 194 184 190 192 184 171 161 161 165 175 171 170 172 176 176 174 172 170 170 169 168 166 166 168 170 180 183 181 173 168 169 170 170 186 186 184 180 178 180 182 183 164 160 153 151 161 180 194 201 204 195 187 184 186 189 191 192 205 207 211 214 214 213 214 216 213 212 211 212 213 213 211 209 
108 111 111 94 96 109 107 103 96 92 94 101 108 103 111 120 124 126 135 150 163 166 171 177 180 178 176 178 181 198 203 206 204 195 182 171 164 156 154 153 155 162 168 170 169 164 169 176 181 183 184 185 187 173 181 185 182 177 175 174 172 182 189 195 192 182 176 181 189 165 163 160 157 158 168 187 203 205 201 194 186 183 185 189 191 196 202 209 214 215 216 215 214 213 212 211 212 213 213 211 209 
105 106 105 91 101 90 96 102 105 106 110 118 125 111 120 131 139 142 145 151 157 159 159 163 168 170 167 167 169 168 175 186 198 202 196 183 172 171 170 166 164 170 179 182 180 169 177 187 193 195 194 194 195 187 192 192 186 180 179 178 177 177 189 201 200 185 175 181 194 175 169 167 164 154 149 167 192 201 203 200 189 180 181 186 190 190 199 208 212 214 217 216 213 213 212 211 212 214 214 213 211 
100 105 109 95 110 103 107 112 115 115 111 106 103 116 118 121 124 128 132 136 139 141 139 142 147 147 143 143 147 139 142 149 159 169 175 174 172 172 172 168 166 172 183 187 185 182 189 197 199 196 192 191 192 200 201 197 187 181 181 180 177 179 189 201 203 192 182 189 203 197 179 171 171 156 137 150 180 194 203 204 190 177 176 184 190 192 200 207 208 210 215 215 212 212 211 211 213 215 216 215 213 
101 111 116 98 110 117 110 103 102 108 114 116 115 116 118 123 128 132 132 129 126 142 142 145 148 145 139 141 148 160 152 143 138 142 152 164 172 165 167 166 167 176 190 195 193 185 191 197 198 195 191 192 194 188 190 188 183 182 183 182 178 184 191 201 205 198 192 199 212 212 186 175 180 167 144 155 187 189 202 206 192 175 173 182 190 195 203 207 205 206 212 215 212 212 211 212 214 216 217 216 215 
108 112 111 108 107 104 99 97 102 109 112 110 108 116 116 118 120 116 115 128 145 144 147 148 143 137 138 147 156 168 157 151 153 150 144 149 162 168 165 164 168 175 182 186 186 185 187 190 193 195 194 190 187 193 193 191 189 187 185 183 183 188 189 193 199 199 196 196 200 194 197 184 176 174 156 154 183 184 205 203 198 183 172 182 177 189 195 200 202 200 201 205 209 206 208 213 217 214 209 208 212 
101 105 103 101 100 93 96 101 106 108 108 108 110 107 110 117 124 123 121 127 137 148 148 148 150 153 158 164 168 165 156 152 153 150 143 147 157 166 164 162 165 171 179 183 185 185 187 191 194 194 192 190 188 194 193 191 191 190 190 188 187 187 190 196 201 199 194 194 199 197 199 191 190 192 171 157 170 185 202 202 202 187 173 184 185 191 196 201 202 200 201 206 210 209 210 214 219 217 212 212 215 
94 97 95 93 93 84 93 101 102 101 105 115 123 112 114 120 128 131 131 134 139 150 146 143 146 153 156 153 149 167 161 159 160 156 148 149 156 168 166 164 165 170 176 180 182 183 188 193 194 191 188 188 189 195 192 190 191 194 195 192 190 187 192 201 204 199 191 191 197 196 195 191 197 205 192 174 174 188 200 199 205 189 168 180 189 191 195 198 198 198 199 204 208 209 209 213 218 218 214 213 217 
89 92 89 87 88 83 91 96 95 97 109 125 137 129 127 127 131 137 141 146 149 159 155 152 155 159 159 154 147 167 163 162 163 159 152 150 155 168 168 170 172 175 177 179 180 182 187 193 193 188 184 185 188 194 190 188 189 193 195 192 189 188 195 205 208 199 189 189 196 199 194 189 192 200 197 188 184 193 198 196 205 188 160 171 185 188 190 193 193 194 196 200 204 206 206 209 214 215 213 213 216 
84 86 84 83 85 87 94 98 98 104 117 128 132 134 134 135 137 142 147 148 147 144 146 149 153 158 160 160 160 161 160 160 159 156 151 150 153 161 166 172 178 181 182 182 182 182 187 192 191 186 182 183 186 190 188 186 187 190 191 190 187 191 198 207 210 200 190 189 196 198 194 192 190 189 192 192 186 195 196 192 204 189 160 171 185 187 189 191 193 195 197 201 203 205 203 206 212 215 214 214 216 
80 82 80 80 83 89 98 105 108 115 124 124 117 127 134 141 146 149 150 145 138 138 142 147 149 151 154 159 164 165 165 164 162 159 159 161 163 159 165 174 182 185 187 188 188 186 189 192 190 186 183 183 185 184 185 186 187 188 189 190 191 196 201 208 210 202 193 192 197 182 183 190 192 188 199 204 193 194 194 188 201 192 170 180 189 187 189 193 197 200 203 205 206 206 203 205 211 216 216 216 219 
80 82 81 82 86 91 101 108 108 114 124 125 118 128 139 148 152 155 156 151 144 163 163 164 163 162 165 170 175 173 173 171 167 166 170 176 179 173 178 184 188 189 189 191 193 192 192 192 192 190 188 186 185 178 183 188 190 189 191 196 201 202 203 207 209 204 197 195 199 182 180 190 192 189 207 216 200 194 194 185 196 192 176 184 186 185 188 193 199 205 208 208 207 204 200 201 209 215 216 216 218 
83 86 85 86 91 93 102 105 101 106 122 132 131 138 148 155 155 157 162 164 161 166 163 160 160 162 167 173 176 175 175 172 167 167 174 182 186 193 195 196 194 191 189 191 194 197 195 194 193 193 192 189 186 175 182 190 192 192 194 202 209 205 204 206 209 206 199 197 200 205 196 196 191 184 204 215 194 195 195 184 191 188 176 181 177 182 185 192 199 205 208 207 206 201 197 197 205 211 213 214 216 
81 85 91 94 93 108 111 117 123 128 131 132 133 141 147 153 157 159 161 166 170 166 158 153 158 166 171 176 180 186 186 186 187 189 191 193 194 197 199 201 201 200 197 194 192 191 191 191 192 193 196 199 200 189 187 186 189 196 201 203 203 211 212 212 208 202 199 198 200 203 199 195 196 200 203 204 203 201 192 191 196 193 184 182 189 192 193 194 195 198 201 205 207 208 199 195 201 207 209 212 216 
84 85 90 92 92 101 106 114 122 129 134 137 138 134 142 152 160 164 168 173 177 168 166 166 170 171 171 175 180 184 183 182 182 185 189 193 196 196 198 200 202 203 201 199 197 200 199 198 198 198 200 201 202 197 194 192 194 198 201 202 201 207 209 209 207 203 201 202 203 205 203 202 202 203 205 205 205 206 199 199 204 202 192 190 195 194 194 195 198 202 206 208 208 210 205 204 207 208 207 211 218 
84 83 87 91 92 99 104 113 123 132 137 140 141 139 146 155 160 160 159 160 161 165 167 171 174 171 166 168 175 181 179 178 179 183 188 194 198 196 198 201 204 206 206 205 204 207 206 205 204 203 203 203 204 203 201 199 200 202 205 205 205 208 210 211 211 209 209 210 211 210 211 212 212 210 209 209 209 211 206 207 212 210 201 198 201 195 193 193 196 202 207 209 208 210 210 211 211 207 204 209 216 
80 79 84 90 94 103 108 118 127 135 140 142 142 151 156 160 160 156 152 151 152 162 163 167 171 170 167 168 173 178 179 180 183 188 193 198 201 198 200 203 206 208 208 208 207 209 208 208 207 206 206 205 205 205 205 204 205 208 211 213 214 217 217 218 219 219 220 221 221 216 219 223 222 217 214 213 214 212 209 211 216 214 207 203 204 198 193 188 189 196 203 207 208 209 210 211 210 208 206 208 212 
79 79 84 92 96 107 112 121 131 139 144 147 148 155 159 162 162 160 160 163 167 166 161 161 167 173 175 177 180 178 181 186 192 197 200 201 202 202 203 205 207 208 208 208 207 209 209 209 210 210 210 210 210 210 210 210 210 211 214 217 219 225 225 225 225 226 227 227 227 222 226 230 229 224 219 218 219 213 213 215 218 217 212 208 208 204 197 188 185 190 198 206 210 211 210 208 208 211 214 213 211 
83 83 90 97 100 109 114 122 132 141 148 153 155 156 158 161 161 160 162 167 172 168 161 158 164 173 177 180 183 181 185 192 198 202 204 203 202 204 204 205 206 207 207 207 206 209 210 212 213 214 214 214 214 215 216 216 214 213 214 217 219 228 227 226 227 229 230 229 228 229 231 232 232 229 225 223 222 217 217 219 220 220 217 215 214 213 206 197 190 190 197 207 214 215 213 210 209 214 220 220 215 
85 89 98 105 107 114 118 124 132 140 147 153 156 155 158 161 161 159 159 162 166 171 166 165 170 173 175 179 184 185 188 193 198 201 202 202 201 202 203 204 205 205 206 206 207 208 210 211 213 214 214 213 213 215 216 217 216 214 215 218 222 228 226 225 227 230 232 231 229 234 233 232 232 232 230 227 224 218 220 220 220 219 219 218 217 217 214 207 199 193 196 205 213 216 217 214 210 211 218 221 218 
84 91 103 111 113 121 123 126 131 137 143 148 151 151 156 162 166 166 166 169 172 178 178 180 182 180 177 181 189 188 189 192 195 198 199 200 201 200 201 202 203 205 206 207 208 206 207 209 210 210 210 209 208 211 213 215 216 215 218 223 227 228 226 225 228 233 235 235 233 236 233 231 231 233 232 229 225 218 219 219 217 217 219 219 217 216 216 213 204 195 194 202 210 213 218 217 209 206 212 218 219 
95 99 105 105 101 114 124 133 136 139 144 148 149 156 155 157 163 168 172 176 179 187 183 180 182 187 192 193 193 197 196 195 195 196 198 201 202 201 202 204 205 206 207 207 207 209 210 211 212 212 212 211 211 212 214 216 217 218 220 223 226 223 228 230 229 231 235 235 231 237 234 231 231 232 232 229 226 220 221 220 218 217 217 219 221 219 223 213 200 198 196 198 210 205 218 222 212 206 212 216 215 
97 100 106 109 109 110 121 133 138 141 146 148 147 163 164 166 169 169 169 170 172 175 177 180 183 185 188 190 192 203 203 202 201 200 198 196 195 200 201 203 205 207 208 208 208 211 212 212 213 213 213 212 212 211 213 216 217 218 219 222 224 222 226 229 229 231 234 233 230 234 231 228 228 229 229 226 224 222 222 222 220 218 218 220 222 221 224 215 205 200 189 189 204 212 216 212 203 204 216 222 220 
99 100 107 115 117 118 128 136 138 141 146 151 151 159 164 170 173 173 175 178 180 186 193 201 204 203 203 205 208 199 201 204 206 206 205 202 200 202 204 205 208 210 211 211 212 213 213 214 214 214 213 213 212 209 212 216 218 218 219 220 221 219 224 227 227 229 232 231 227 229 227 226 225 225 225 223 221 221 221 220 218 216 216 218 221 220 220 214 210 202 184 183 203 200 208 211 206 205 210 211 206 
101 102 109 117 121 128 134 136 133 134 142 151 154 152 160 166 168 169 175 181 184 186 191 197 201 201 201 201 203 198 200 204 207 209 209 208 207 208 209 210 212 213 213 213 213 213 214 214 214 213 212 211 210 208 212 216 218 218 217 217 218 216 221 225 224 226 229 229 225 226 225 224 223 223 222 221 220 217 217 217 214 212 212 214 216 216 214 210 212 205 184 184 209 190 203 211 210 208 210 213 213 
102 105 112 117 119 121 129 133 133 135 142 149 151 156 162 165 162 163 170 176 177 181 181 184 189 195 199 198 197 206 206 207 206 206 205 204 204 210 211 211 212 212 212 211 211 213 213 213 213 212 210 209 208 208 211 215 217 217 215 215 216 215 219 221 220 222 226 226 223 224 224 224 223 222 221 221 221 216 216 215 212 210 209 211 213 216 212 208 210 205 185 185 210 205 205 206 209 218 226 226 223 
105 112 118 119 116 113 126 139 146 149 153 154 152 159 166 167 165 170 181 185 182 180 179 182 189 199 205 204 202 200 201 202 203 205 206 207 208 208 208 209 210 210 209 209 208 214 214 213 212 211 209 207 206 209 212 214 215 214 213 214 214 214 217 218 215 217 222 224 223 222 223 224 223 221 220 220 222 217 217 216 213 210 209 211 213 217 215 210 209 204 186 181 197 216 210 210 220 230 221 194 168 
110 119 126 124 118 120 132 144 149 151 155 155 154 157 164 167 168 177 189 188 179 168 172 178 185 191 192 191 189 187 190 196 202 206 209 210 211 206 207 208 210 211 212 212 212 215 215 215 213 212 210 208 206 210 212 213 213 212 211 213 214 215 216 215 211 213 219 223 223 219 221 223 222 219 218 219 221 215 215 214 212 209 208 209 211 212 216 211 207 204 188 176 180 210 215 222 222 207 175 137 113 
114 124 131 128 120 129 135 139 137 137 143 148 150 156 163 165 164 172 179 171 155 170 178 189 193 192 187 185 184 188 192 198 204 206 206 203 201 206 207 210 213 215 217 218 219 217 217 216 215 213 211 208 207 211 212 213 212 210 210 212 214 215 216 213 209 210 218 223 223 218 220 222 220 217 216 218 220 213 213 211 209 206 205 206 208 205 212 210 206 205 192 174 169 205 219 226 205 162 125 115 120 
121 128 126 125 128 128 131 134 136 139 144 151 157 151 150 155 164 169 170 176 185 191 193 195 197 198 202 206 210 212 213 213 213 210 207 204 201 209 210 212 213 214 217 221 224 221 219 216 214 214 212 209 207 209 210 212 213 214 213 212 212 208 207 201 196 201 213 218 216 218 219 220 221 221 220 219 218 218 215 210 207 207 208 209 209 212 210 208 206 202 192 179 170 202 200 182 150 123 117 122 127 
121 118 114 118 125 133 135 138 139 141 146 152 158 155 155 160 169 174 176 183 191 196 197 199 200 200 203 207 210 209 209 210 210 209 206 204 202 208 210 212 213 214 215 218 221 216 215 213 212 213 213 211 209 217 216 216 215 212 209 206 205 211 211 205 201 204 213 217 215 210 211 213 214 215 215 214 214 213 209 205 203 203 204 205 205 207 205 203 201 197 189 179 172 189 166 136 118 116 121 123 121 
113 108 107 117 129 133 134 135 136 138 142 147 151 159 160 165 173 178 181 188 195 196 198 199 199 200 201 204 207 205 205 207 208 207 206 205 203 209 211 214 214 214 214 216 217 212 211 210 211 213 214 213 212 218 218 216 214 211 208 206 204 215 215 211 207 208 214 216 214 205 206 207 209 210 211 211 211 208 205 201 200 201 202 203 203 203 202 201 198 193 187 181 177 169 137 109 106 117 121 120 120 
110 109 110 120 133 134 134 134 134 136 140 144 147 159 161 166 171 175 179 185 190 190 192 195 196 196 198 200 203 202 203 205 207 208 208 208 207 211 214 216 217 216 215 215 215 212 211 210 211 213 215 214 213 211 211 212 212 212 212 212 212 217 216 214 212 212 214 215 215 209 209 210 210 210 210 210 210 208 205 202 201 203 204 205 204 204 203 201 197 192 188 185 183 152 129 114 119 120 110 109 119 
114 114 114 122 133 138 137 137 138 141 145 148 150 156 160 164 166 169 174 179 182 186 189 192 195 196 198 201 203 202 203 205 207 209 211 212 212 214 217 219 220 218 216 216 216 215 214 213 213 214 215 214 212 206 207 208 210 213 216 218 219 215 214 214 214 213 213 215 217 215 214 213 212 211 210 210 209 207 205 202 202 203 205 204 204 204 202 198 195 192 189 186 185 153 131 119 122 117 102 101 114 
113 115 118 127 137 137 135 135 137 141 146 150 151 155 160 163 164 167 173 178 179 187 191 195 198 200 202 204 207 203 204 206 208 210 213 214 215 217 219 220 220 218 217 218 219 217 215 214 214 215 215 213 211 208 208 209 210 212 214 216 218 215 212 212 213 211 209 211 216 217 216 214 211 209 208 207 207 205 203 201 201 202 202 201 200 201 196 192 190 192 191 188 185 173 141 117 117 119 112 109 115 
116 121 125 132 139 134 132 131 135 141 147 151 152 156 163 167 167 171 180 185 185 192 195 199 202 203 204 206 207 204 204 206 208 210 213 215 216 217 218 219 218 217 216 218 220 215 214 212 213 214 214 213 211 213 212 211 211 211 212 213 214 216 212 210 211 207 203 206 213 216 214 212 210 208 208 208 208 205 203 201 200 201 201 199 197 197 191 186 189 196 199 194 188 181 152 126 122 125 122 118 118 
